<?xml version="1.0" encoding="utf-8"?>
<!-- Generator: Adobe Illustrator 15.0.0, SVG Export Plug-In . SVG Version: 6.00 Build 0)  -->
<!DOCTYPE svg PUBLIC "-//W3C//DTD SVG 1.1//EN" "http://www.w3.org/Graphics/SVG/1.1/DTD/svg11.dtd">
<svg version="1.1" id="Layer_1" xmlns="http://www.w3.org/2000/svg" xmlns:xlink="http://www.w3.org/1999/xlink" x="0px" y="0px"
	 width="70px" height="70px" viewBox="0 0 70 70" enable-background="new 0 0 70 70" xml:space="preserve">
<g>
	<path fill="#FFFFFF" d="M55.48,47.23c0,0.668-0.215,1.482-0.603,2.387C51.037,55.841,44.738,60.588,35,60.588
		c-9.899,0-16.282-4.908-19.953-11.051c-0.341-0.872-0.529-1.658-0.529-2.307c0-0.986,0-0.385,0-1.377
		c0-3.684,7.978-7.414,13.638-9.463c0.408-0.148,2.359-1.216,1.269-4.076c-2.803-2.87-4.921-7.505-4.921-12.068
		c0-6.997,4.622-10.66,10.03-10.66c5.407,0,10.051,3.663,10.051,10.66c0,4.544-2.124,9.164-4.917,12.035h0.021
		c-1.073,3.254,0.639,4.021,0.91,4.108c5.938,1.967,14.883,5.67,14.883,9.463C55.48,46.846,55.48,46.244,55.48,47.23z"/>
</g>
</svg>
